<svg xmlns="http://www.w3.org/2000/svg" viewBox="0 0 196.31 248.19"><defs><style>.cls-1{fill:none;stroke-width:10px;}.cls-1,.cls-2{stroke:#000;stroke-miterlimit:10;}.cls-2{stroke-width:8px;}</style></defs><g id="Layer_2" data-name="Layer 2"><g id="Layer_1-2" data-name="Layer 1"><path class="cls-1" d="M170.4,163.56l-7.17,70.19A10.25,10.25,0,0,1,153,243.19H44.5a10.24,10.24,0,0,1-10.2-9.38l-7.59-70.25Z"/><polygon class="cls-1" points="183.87 31.78 179.48 74.75 17.11 74.75 12.47 31.78 183.87 31.78"/><path class="cls-1" d="M187.87,31.78H8.43a3.43,3.43,0,0,1-3.24-4.56L12.68,5.74a1.1,1.1,0,0,1,2.05-.08l166.81.22a1.12,1.12,0,0,1,1.06-.71,1.14,1.14,0,0,1,1.1.78l7.41,21.27A3.43,3.43,0,0,1,187.87,31.78Z"/><polygon class="cls-1" points="183.7 73.05 173.7 161.86 22.6 161.86 12.6 73.05 183.7 73.05"/><path class="cls-2" d="M80.31,132.62l-3.87-6.71c-1.57-2.56-2.57-4.23-3.51-6h-.09c-.85,1.75-1.71,3.37-3.28,6l-3.65,6.66h-4.5l9.27-15.34-8.91-15h4.55l4,7.11c1.13,2,2,3.51,2.79,5.13h.14c.85-1.8,1.62-3.19,2.74-5.13l4.14-7.11h4.5L75.4,117.05l9.45,15.57Z"/><path class="cls-2" d="M105.33,132.62l-3.87-6.71c-1.57-2.56-2.57-4.23-3.51-6h-.09c-.85,1.75-1.71,3.37-3.28,6l-3.65,6.66h-4.5l9.27-15.34-8.91-15h4.55l4,7.11c1.13,2,2,3.51,2.79,5.13h.14c.85-1.8,1.62-3.19,2.74-5.13l4.14-7.11h4.5l-9.22,14.76,9.44,15.57Z"/><path class="cls-2" d="M130.35,132.62l-3.87-6.71c-1.57-2.56-2.56-4.23-3.51-6h-.09c-.85,1.75-1.71,3.37-3.28,6L116,132.62h-4.5l9.27-15.34-8.91-15h4.55l4,7.11c1.13,2,2,3.51,2.79,5.13h.14c.85-1.8,1.62-3.19,2.74-5.13l4.14-7.11h4.5l-9.22,14.76,9.45,15.57Z"/></g></g></svg>